<?xml version="1.0" standalone="no"?>
<!DOCTYPE svg PUBLIC "-//W3C//DTD SVG 20010904//EN"
 "http://www.w3.org/TR/2001/REC-SVG-20010904/DTD/svg10.dtd">
<svg version="1.0" xmlns="http://www.w3.org/2000/svg"
 width="400.000000pt" height="400.000000pt" viewBox="0 0 400.000000 400.000000"
 preserveAspectRatio="xMidYMid meet">
<metadata>
Created by potrace 1.11, written by Peter Selinger 2001-2013
</metadata>
<g transform="translate(0.000000,400.000000) scale(0.100000,-0.100000)"
fill="#000000" stroke="none">
<path d="M2620 2747 c-75 -25 -149 -77 -176 -123 -15 -25 -24 -47 -21 -50 3
-3 25 7 49 23 72 46 88 53 87 40 0 -7 -21 -29 -45 -49 l-45 -38 29 0 c16 0 36
-7 43 -16 9 -11 23 -14 49 -10 26 4 31 3 18 -5 -24 -14 -22 -26 5 -33 27 -6
69 -44 63 -55 -10 -15 70 -32 99 -21 41 16 65 12 102 -16 23 -17 33 -33 33
-52 1 -15 11 -40 24 -55 l23 -29 -7 44 c-6 42 -20 73 -72 169 -32 59 -43 99
-26 99 6 0 2 10 -10 23 -11 12 -22 27 -23 32 -7 40 -29 64 -67 74 -17 5 -28
15 -30 29 -2 12 -9 22 -15 22 -7 0 -21 2 -32 5 -11 2 -36 -1 -55 -8z m6 -165
c16 -37 12 -49 -15 -44 -14 3 -32 13 -39 24 -7 10 -20 18 -28 18 -34 0 -2 17
35 18 28 1 41 -3 47 -16z"/>
<path d="M1315 2700 c-3 -5 -17 -10 -31 -10 -17 0 -24 -5 -24 -20 0 -10 -6
-23 -12 -27 -15 -9 -47 -56 -68 -98 -8 -16 -19 -33 -25 -37 -5 -4 -6 -8 -2 -8
9 0 -24 -60 -33 -60 -3 0 -6 -16 -7 -35 -1 -19 -15 -63 -32 -97 -31 -65 -54
-138 -46 -147 6 -5 4 -8 48 60 21 31 37 60 37 64 0 13 44 75 53 75 4 0 7 -6 7
-14 0 -19 21 -25 45 -13 18 9 19 9 6 -6 -12 -15 -11 -17 5 -17 25 0 39 11 39
30 0 8 7 15 16 15 8 0 23 7 32 17 9 9 35 19 57 23 40 7 66 25 35 25 -9 0 -13
5 -10 10 3 6 1 10 -5 10 -21 0 0 18 29 25 23 5 28 11 25 30 -1 14 2 27 7 31 5
3 4 14 -3 27 -10 20 -10 21 5 8 14 -11 17 -11 17 0 -1 16 -24 49 -34 49 -4 0
-4 -6 -1 -12 3 -7 0 -5 -7 6 -17 24 -103 106 -112 106 -3 0 -8 -4 -11 -10z
m63 -148 c-12 -15 -11 -16 5 -3 16 12 20 12 34 -2 14 -14 14 -17 -2 -34 -13
-12 -20 -14 -23 -5 -2 8 -9 9 -21 2 -22 -11 -31 -4 -31 27 0 14 6 23 15 23 8
0 15 5 15 11 0 5 5 7 10 4 8 -5 7 -12 -2 -23z m-95 -179 c-7 -2 -21 -2 -30 0
-10 3 -4 5 12 5 17 0 24 -2 18 -5z"/>
<path d="M3867 2436 c-5 -13 1 -16 29 -16 24 0 34 4 32 13 -7 19 -54 21 -61 3z"/>
<path d="M2630 2400 c13 -9 13 -11 0 -20 -9 -6 -10 -10 -3 -10 6 0 15 5 19 11
3 6 15 9 25 6 12 -3 19 0 19 9 0 10 -12 14 -37 14 -29 0 -34 -3 -23 -10z"/>
<path d="M3230 2170 c-23 -7 -23 -8 -3 -9 12 -1 25 4 28 9 3 6 5 10 3 9 -2 -1
-14 -5 -28 -9z"/>
<path d="M1133 2148 c-11 -19 -13 -39 -2 -32 5 3 7 9 4 14 -3 5 3 10 12 12 12
2 14 6 6 11 -6 4 -15 2 -20 -5z"/>
<path d="M1308 2118 l-23 -23 23 -3 c12 -2 22 -8 22 -15 0 -23 25 14 25 38 1
31 -18 32 -47 3z"/>
<path d="M3985 2130 c-3 -5 -1 -10 4 -10 6 0 11 5 11 10 0 6 -2 10 -4 10 -3 0
-8 -4 -11 -10z"/>
<path d="M2116 2101 c-4 -6 3 -15 14 -21 23 -12 27 2 6 19 -9 8 -16 8 -20 2z"/>
<path d="M2160 2053 c0 -3 11 -20 24 -37 20 -27 28 -51 39 -119 2 -9 9 -23 17
-30 10 -10 11 -9 4 3 -10 19 -13 51 -3 44 4 -2 10 0 13 5 3 5 0 11 -8 14 -7 3
-16 21 -20 41 -4 19 -18 44 -31 54 -13 11 -21 22 -18 26 3 3 1 6 -5 6 -7 0
-12 -3 -12 -7z"/>
<path d="M1499 1986 c-9 -20 -18 -24 -45 -21 -18 2 -33 0 -32 -4 1 -3 -4 -30
-11 -59 -8 -32 -10 -67 -5 -90 4 -20 6 -47 5 -59 -2 -15 3 -23 13 -23 9 0 15
-3 15 -7 -3 -19 2 -34 9 -29 4 2 9 -4 10 -15 4 -43 6 -49 15 -49 11 0 57 -47
57 -59 0 -4 -16 -26 -35 -48 -31 -36 -33 -43 -21 -56 11 -11 12 -17 3 -27 -9
-9 -6 -9 10 1 12 7 24 22 27 34 5 18 4 19 -8 3 -7 -10 -16 -15 -20 -11 -3 3 1
15 11 25 9 10 13 18 8 18 -4 0 -2 7 5 15 17 20 28 19 26 -2 0 -10 4 -17 11
-16 6 1 10 -5 8 -15 -1 -9 -9 -16 -17 -16 -11 1 -17 -12 -22 -42 -6 -45 -33
-110 -42 -101 -3 3 2 19 11 36 8 17 13 31 11 31 -10 0 -37 -61 -31 -69 3 -5
-4 -30 -15 -57 -18 -40 -18 -45 -4 -33 16 13 16 12 4 -8 -8 -12 -18 -19 -24
-16 -5 4 -7 -1 -2 -12 5 -14 4 -16 -7 -7 -8 7 -17 9 -21 5 -4 -4 -4 0 0 10 3
9 10 15 14 12 4 -2 13 23 19 58 7 34 14 70 17 80 5 15 2 16 -20 7 -31 -11 -33
-7 -6 20 11 11 20 29 20 39 0 11 5 23 10 26 6 3 10 12 10 18 -1 11 -44 -40
-45 -53 -2 -15 -43 -69 -48 -63 -4 3 -7 1 -7 -5 0 -7 -4 -12 -10 -12 -11 0
-14 33 -3 44 4 3 8 14 9 23 2 8 12 38 24 65 12 27 19 57 17 66 -3 12 -5 11 -6
-5 0 -12 -5 -24 -10 -27 -4 -3 -18 -38 -31 -78 -12 -40 -25 -80 -28 -88 -3 -8
-4 -19 -3 -25 2 -5 -1 -7 -5 -3 -4 4 -13 3 -21 -3 -9 -9 -13 -8 -13 0 0 6 3
11 8 11 4 0 8 15 9 33 4 47 8 63 19 78 6 8 14 23 18 33 7 19 6 19 -14 1 -11
-10 -20 -24 -20 -30 0 -7 -10 -19 -23 -28 -22 -14 -23 -14 -19 22 3 34 2 35
-12 17 -9 -11 -16 -15 -16 -8 0 6 -7 9 -15 6 -13 -5 -13 -8 0 -21 18 -17 18
-15 5 -48 -5 -14 -14 -24 -19 -21 -5 3 -12 -1 -15 -9 -3 -8 -10 -14 -15 -13
-5 2 -10 -1 -11 -7 -1 -5 -10 -24 -21 -41 -21 -34 -26 -69 -8 -58 6 3 15 1 19
-6 5 -8 24 4 60 39 29 28 55 49 58 46 3 -3 -7 -14 -23 -26 -15 -12 -40 -40
-56 -62 -16 -22 -29 -36 -29 -31 0 5 -5 2 -10 -7 -5 -9 -6 -28 0 -45 4 -16 9
-22 9 -14 1 12 3 12 11 -2 11 -18 11 -23 10 -151 -2 -96 7 -150 21 -141 13 7
8 77 -5 86 -7 5 -4 8 7 8 12 0 17 8 17 26 0 32 13 24 35 -23 10 -21 20 -32 22
-26 4 11 47 9 61 -2 1 -1 -7 -22 -18 -46 -21 -47 -29 -145 -8 -102 16 33 23
29 47 -22 12 -25 26 -43 31 -40 7 4 7 13 0 25 -22 41 -10 51 20 16 34 -38 32
-66 -5 -66 -38 0 -83 24 -131 69 -24 24 -48 41 -51 37 -3 -3 -1 -23 5 -43 15
-52 22 -77 22 -86 0 -4 13 -34 30 -67 23 -46 30 -73 30 -119 0 -54 12 -83 27
-67 3 3 5 30 5 61 0 58 9 69 30 35 7 -11 17 -20 23 -20 17 1 54 86 44 101 -6
10 -2 15 18 19 34 7 47 41 25 71 -21 30 -26 79 -8 79 8 0 17 -12 21 -27 7 -31
45 -96 51 -90 2 2 -1 18 -7 36 -6 17 -8 39 -4 49 5 13 10 8 22 -23 22 -55 54
-96 94 -119 l33 -19 -24 39 -25 39 39 -38 c45 -45 57 -42 26 8 l-22 35 51 -31
c28 -18 51 -38 51 -45 0 -7 5 -16 12 -20 6 -4 8 -3 4 4 -3 6 0 9 9 8 23 -3 27
-12 10 -26 -8 -7 -15 -20 -15 -29 1 -12 5 -11 20 8 14 17 20 19 20 8 0 -9 -7
-22 -15 -30 -8 -8 -11 -18 -7 -22 4 -5 3 -6 -3 -3 -5 4 -29 -4 -52 -16 -32
-17 -39 -26 -31 -34 9 -9 9 -12 -1 -12 -11 0 -11 -3 0 -16 10 -13 10 -17 0
-23 -10 -7 -8 -12 8 -23 11 -8 18 -18 14 -21 -9 -10 12 -8 63 4 25 7 53 22 63
35 10 13 21 21 24 18 7 -7 32 41 41 78 5 21 0 31 -22 50 -55 46 -52 86 3 62
19 -8 35 -13 36 -12 12 68 5 94 -26 88 -5 -1 -5 4 1 10 9 9 17 9 32 1 15 -8
29 -7 54 3 27 12 41 12 70 3 40 -13 49 -29 36 -66 -7 -20 -6 -23 12 -18 11 3
20 0 20 -6 0 -6 7 -2 15 9 14 19 14 19 15 -1 0 -18 1 -18 16 4 l17 24 13 -24
c13 -26 22 -28 34 -9 10 16 30 4 30 -18 0 -12 3 -13 12 -4 7 7 11 38 10 76
l-1 65 52 -3 c29 -2 67 -4 85 -5 27 -1 32 -5 32 -25 0 -13 7 -29 15 -36 20
-17 10 -29 -20 -25 -14 1 -28 -1 -31 -6 -2 -5 -15 -4 -28 1 -40 15 -104 1 -91
-21 4 -5 17 -9 31 -9 13 0 24 -4 24 -10 0 -5 14 -10 30 -10 31 0 37 -9 20 -26
-11 -11 33 -11 61 1 10 4 19 0 22 -9 5 -11 0 -16 -13 -16 -14 0 -18 -5 -13
-16 5 -13 2 -15 -14 -10 -27 8 -55 -3 -49 -20 3 -7 -3 -14 -12 -16 -14 -3 -12
-9 13 -33 35 -34 37 -76 4 -68 -23 7 -24 -4 -2 -29 16 -18 16 -18 0 -12 -13 5
-16 2 -10 -11 5 -16 2 -17 -26 -12 -24 5 -30 4 -24 -6 4 -6 -5 -4 -20 6 -15
10 -32 15 -37 12 -12 -8 -28 24 -36 74 -5 32 -15 48 -45 71 -24 20 -40 27 -44
20 -4 -6 -4 -14 -1 -17 9 -10 -15 -33 -27 -26 -6 4 -8 0 -4 -10 3 -9 -2 -26
-13 -39 l-19 -23 -2 33 c-2 41 -3 44 -12 60 -27 41 -78 -40 -79 -125 0 -29 -5
-56 -9 -59 -5 -3 -7 -11 -3 -17 3 -7 -4 -1 -15 13 -11 14 -23 33 -26 42 -6 16
-8 16 -30 2 -12 -8 -25 -11 -27 -6 -6 16 -86 1 -110 -21 l-23 -22 43 -3 c23
-2 42 -7 42 -11 0 -18 -34 -35 -67 -33 -22 2 -32 -1 -28 -8 3 -5 19 -10 35
-10 23 0 28 -3 23 -17 -5 -12 -2 -15 10 -10 24 9 31 -10 8 -22 -31 -17 -68
-13 -120 14 -27 13 -50 22 -53 20 -2 -2 -12 11 -23 30 -21 40 -16 52 13 36 29
-16 60 -15 44 1 -17 17 -15 45 6 57 16 10 16 10 0 11 -9 0 -21 6 -25 13 -4 7
-34 19 -65 26 -66 14 -88 32 -31 25 l38 -5 -28 16 c-18 10 -33 13 -45 7 -9 -5
-23 -7 -31 -4 -10 3 -12 -1 -8 -17 3 -11 1 -19 -3 -16 -16 10 -20 -13 -5 -25
11 -9 12 -16 4 -26 -6 -7 -7 -19 -3 -25 4 -7 3 -9 -3 -6 -13 8 -53 -38 -53
-62 0 -10 11 -30 26 -46 14 -15 24 -28 22 -29 -33 -15 -43 -27 -43 -52 l0 -29
125 -2 c113 -2 122 -1 94 11 -17 8 -34 21 -37 30 -5 13 0 12 22 -5 27 -20 31
-20 52 -5 33 22 48 20 59 -9 l10 -25 217 1 218 0 21 27 c11 15 26 46 32 69 15
52 21 56 56 37 39 -20 47 -18 40 11 -5 21 -3 25 14 25 12 0 23 -4 27 -9 3 -6
-3 -8 -14 -6 -17 3 -18 1 -5 -25 21 -41 40 -53 74 -46 39 7 47 -11 25 -53
l-16 -31 161 0 c157 0 161 1 156 20 -3 11 -9 29 -12 40 -3 11 -1 20 6 20 6 0
8 10 4 27 -7 26 -6 27 10 14 14 -12 16 -24 10 -68 -6 -52 -6 -53 20 -53 14 0
26 6 26 13 0 6 14 20 31 29 23 14 29 23 24 38 -4 13 0 23 15 32 12 7 30 27 40
44 17 26 18 35 8 62 -10 26 -9 40 5 79 9 26 17 60 17 75 0 15 7 34 16 43 15
15 18 15 34 0 16 -15 18 -14 25 2 4 10 7 28 6 41 -1 12 3 22 10 22 10 0 10 3
2 11 -19 19 -3 39 31 39 21 0 27 3 17 9 -11 7 -9 10 8 16 26 8 26 16 1 64 -16
33 -23 38 -47 34 -26 -3 -27 -3 -5 7 20 8 21 13 11 31 -7 14 -9 42 -5 75 5 46
4 53 -10 47 -23 -8 -61 16 -74 47 -13 31 -5 76 16 84 25 10 15 26 -16 26 -32
0 -34 4 -31 60 1 19 -7 53 -18 74 -23 44 -76 98 -86 87 -4 -3 -5 0 -3 8 2 7
-2 15 -9 18 -8 3 -10 -4 -7 -21 2 -13 -1 -37 -6 -51 -8 -20 -7 -32 2 -43 10
-12 10 -14 1 -8 -7 4 -13 3 -13 -3 0 -5 5 -13 10 -16 23 -14 10 -33 -20 -29
-35 6 -39 -8 -14 -46 9 -15 1 -10 -20 13 -20 20 -38 37 -41 37 -2 0 -6 -15 -8
-32 -4 -30 -5 -31 -12 -10 -8 25 -25 30 -25 7 0 -8 -5 -15 -11 -15 -8 0 -10
18 -6 58 5 45 3 64 -10 82 -16 22 -17 22 -24 4 -6 -16 -8 -14 -8 9 -1 15 -10
35 -21 44 -11 10 -20 22 -20 27 0 6 16 -5 35 -24 51 -49 45 -14 -7 38 -31 32
-48 42 -69 40 -29 -2 -79 19 -79 34 0 5 8 7 18 5 9 -3 34 -8 55 -12 20 -3 37
-10 37 -16 0 -6 4 -8 9 -4 5 3 12 1 15 -4 3 -5 15 -7 25 -4 13 3 23 -2 31 -17
6 -12 14 -19 17 -16 9 9 -57 104 -85 121 -24 15 -23 13 6 -15 39 -38 35 -51
-6 -21 -17 12 -37 21 -46 21 -9 0 -35 19 -58 43 -31 33 -39 37 -33 19 4 -14 1
-30 -7 -40 -11 -15 -11 -15 2 -5 12 9 17 7 26 -12 11 -23 11 -23 -22 -9 -35
15 -45 6 -19 -16 8 -7 15 -18 15 -24 0 -11 -39 33 -40 45 0 16 -32 81 -36 76
-3 -3 2 -20 11 -38 16 -30 16 -32 0 -25 -9 3 -23 6 -30 6 -7 0 -22 15 -34 33
-11 17 -21 26 -21 19 0 -7 -4 -11 -9 -8 -16 10 -18 -18 -4 -41 11 -16 12 -27
4 -40 -8 -14 -11 -15 -12 -3 -1 8 -1 19 0 24 1 4 -3 14 -9 21 -6 7 -9 19 -8
26 2 8 -3 13 -9 12 -13 -3 -46 50 -38 61 3 3 2 4 -2 1 -3 -3 -12 0 -19 6 -15
12 -21 4 -26 -40 -4 -33 -24 -38 -34 -9 -12 34 -13 49 -5 43 5 -2 17 3 27 11
10 9 13 12 5 8 -11 -5 -13 -3 -8 9 3 10 2 17 -3 17 -6 0 -10 -8 -10 -17 0 -14
-3 -12 -13 6 -15 30 -33 28 -30 -3 l1 -24 -24 23 c-27 25 -31 37 -10 29 10 -4
14 1 13 15 0 11 -3 18 -6 16 -2 -3 -10 0 -17 6 -17 14 -7 39 12 32 9 -3 14 0
12 8 -2 9 6 14 23 14 27 -1 31 8 15 34 -6 10 -5 12 2 7 18 -11 14 4 -5 28 -10
12 -3 8 15 -9 26 -24 32 -26 26 -10 -4 11 -15 31 -25 45 -17 25 -17 26 2 26
13 0 18 -5 14 -15 -3 -9 -3 -12 1 -8 4 4 14 1 22 -6 13 -10 14 -9 7 2 -6 11
-4 13 9 8 11 -4 15 -3 11 4 -4 6 -13 8 -20 5 -8 -3 -17 4 -20 15 -4 10 -10 17
-15 14 -5 -3 -12 0 -16 6 -4 7 -3 9 4 5 5 -3 12 0 14 6 3 8 9 4 17 -10 6 -12
17 -22 23 -22 7 0 7 5 -1 14 -9 11 -9 20 -2 34 11 20 6 32 -13 32 -6 0 -4 -5
4 -10 8 -5 11 -10 6 -10 -5 0 -18 8 -28 17 -18 16 -18 16 -12 0 5 -13 2 -16
-10 -11 -8 3 -18 14 -21 24 -3 10 -12 21 -20 24 -8 3 -15 10 -15 16 0 6 5 8
10 5 6 -3 10 1 10 10 0 9 4 14 9 11 5 -4 8 2 6 11 -2 10 -4 21 -4 26 -1 4 -4
6 -8 5 -5 0 -16 2 -26 7 -15 6 -16 10 -5 17 9 6 6 7 -9 3 -12 -3 -24 -1 -27 4
-4 6 -13 8 -21 4 -8 -3 -15 1 -15 8 0 7 -3 9 -6 6 -4 -3 -15 -2 -25 4 -11 5
-19 6 -19 2 0 -5 -12 -8 -27 -7 -16 1 -34 -3 -40 -9 -7 -5 -13 -6 -13 -3 0 4
-13 -1 -30 -10 -16 -10 -33 -14 -37 -10 -4 5 -2 11 5 13 6 3 9 9 6 14 -3 6
-12 2 -20 -8 -12 -16 -15 -16 -24 -3 -8 13 -10 13 -10 -2 0 -9 -5 -20 -12 -24
-7 -4 -8 -3 -4 4 4 7 1 12 -8 12 -9 0 -16 -7 -16 -15 0 -8 -4 -15 -9 -15 -5 0
-7 10 -5 23 4 20 4 20 -4 2 -5 -11 -7 -26 -5 -32 3 -7 0 -13 -7 -13 -6 0 -9 4
-5 9 3 5 1 12 -5 16 -5 3 -10 14 -10 25 0 10 -7 20 -15 24 -8 3 -15 1 -15 -3
0 -5 5 -11 12 -13 7 -3 8 -10 3 -17 -6 -10 -11 -8 -21 10 -11 20 -13 21 -14 6
0 -17 -2 -17 -28 2 -16 11 -37 18 -48 17 -10 -2 -29 1 -42 5 -18 7 -25 4 -33
-15z m564 -468 c6 -22 5 -22 -8 -4 -17 22 -20 40 -6 32 5 -3 11 -16 14 -28z
m-422 -45 c-4 -28 -6 -32 -9 -15 -3 22 3 52 11 52 1 0 1 -17 -2 -37z m346 5
c-3 -8 -6 -5 -6 6 -1 11 2 17 5 13 3 -3 4 -12 1 -19z m-30 -20 c-3 -7 -5 -2
-5 12 0 14 2 19 5 13 2 -7 2 -19 0 -25z m-368 -7 c8 -14 5 -26 -14 -52 -21
-28 -25 -30 -25 -12 0 11 7 24 16 27 11 4 15 14 12 31 -6 30 -2 32 11 6z m84
4 c-3 -9 -8 -14 -10 -11 -3 3 -2 9 2 15 9 16 15 13 8 -4z m436 -35 c0 -8 -4
-5 -9 8 -5 12 -14 22 -20 22 -6 0 -8 -5 -4 -12 4 -7 3 -8 -4 -4 -17 11 -15 24
6 28 17 4 31 -14 31 -42z m-566 -18 c-5 -43 -30 -89 -41 -77 -7 7 21 95 31 95
5 0 5 10 2 21 -5 14 -3 19 4 15 6 -4 8 -25 4 -54z m707 23 c13 -14 19 -25 14
-25 -8 1 -50 50 -41 50 2 0 14 -11 27 -25z m-540 8 c0 -10 -31 -35 -37 -30
-10 11 5 34 21 34 9 0 16 -2 16 -4z m287 -25 c-3 -8 -6 -5 -6 6 -1 11 2 17 5
13 3 -3 4 -12 1 -19z m74 -11 c-10 -9 -11 -8 -5 6 3 10 9 15 12 12 3 -3 0 -11
-7 -18z m-771 9 c0 -2 -8 -10 -17 -17 -16 -13 -17 -12 -4 4 13 16 21 21 21 13z
m351 -27 c-5 -13 -10 -19 -10 -12 -1 15 10 45 15 40 3 -2 0 -15 -5 -28z m23
-23 c-3 -15 -8 -25 -11 -23 -2 3 -1 17 3 31 3 15 8 25 11 23 2 -3 1 -17 -3
-31z m46 7 c0 -8 -4 -12 -9 -9 -5 4 -11 0 -14 -6 -2 -7 -4 -1 -3 13 1 28 26
30 26 2z m709 -61 c1 -7 -17 4 -39 24 -22 21 -40 42 -40 47 0 14 78 -56 79
-71z m-1176 43 c-7 -21 -12 -19 -10 4 0 11 5 18 9 15 4 -3 5 -11 1 -19z m685
0 c-3 -3 -9 2 -12 12 -6 14 -5 15 5 6 7 -7 10 -15 7 -18z m-765 -60 c-17 -23
-33 -32 -33 -19 0 5 41 43 48 44 2 0 -5 -11 -15 -25z m517 -16 c0 -6 -4 -7
-10 -4 -5 3 -10 1 -10 -6 0 -7 -2 -10 -5 -7 -9 8 6 38 16 32 5 -3 9 -10 9 -15z
m781 -8 c11 -27 -6 -19 -22 11 -8 16 -8 19 2 16 6 -2 16 -14 20 -27z m-814
-63 c-3 -7 -5 -2 -5 12 0 14 2 19 5 13 2 -7 2 -19 0 -25z m-242 -17 c3 -5 1
-12 -5 -16 -5 -3 -10 1 -10 9 0 18 6 21 15 7z m874 -179 c-11 -2 -31 3 -43 12
-27 17 -36 12 -36 -20 0 -18 6 -23 33 -26 23 -3 13 -6 -35 -12 -71 -9 -104 -3
-93 15 5 6 22 8 46 4 27 -5 39 -3 39 5 0 7 -8 9 -21 5 -13 -5 -19 -3 -15 3 3
5 -1 15 -9 22 -11 9 -15 10 -15 1 0 -13 -35 -6 -56 11 -18 13 -6 44 17 44 10
0 19 -3 19 -7 0 -4 9 -9 20 -12 11 -3 18 -1 15 3 -6 10 7 20 35 25 12 2 18 0
15 -6 -4 -5 -11 -7 -16 -4 -5 4 -9 -3 -9 -15 0 -17 3 -19 18 -11 13 7 24 4 42
-10 14 -10 32 -19 40 -19 8 0 -2 11 -23 25 -20 14 -37 29 -37 34 0 23 17 16
51 -22 35 -38 37 -42 18 -45z m-1086 63 c4 -8 2 -17 -3 -20 -6 -4 -10 3 -10
14 0 25 6 27 13 6z m134 -27 c-3 -8 -6 -5 -6 6 -1 11 2 17 5 13 3 -3 4 -12 1
-19z m310 -11 c11 4 14 2 9 -5 -4 -7 -2 -12 6 -12 10 0 10 -2 -1 -9 -8 -5 -11
-16 -8 -25 3 -8 2 -18 -4 -22 -17 -10 -20 1 -10 29 8 19 7 27 -5 31 -8 3 -14
11 -13 18 0 9 2 10 5 1 3 -7 12 -9 21 -6z m-320 -29 c-3 -8 -6 -5 -6 6 -1 11
2 17 5 13 3 -3 4 -12 1 -19z m1018 12 c3 -5 1 -10 -4 -10 -6 0 -11 5 -11 10 0
6 2 10 4 10 3 0 8 -4 11 -10z m-1058 -22 c-3 -8 -6 -5 -6 6 -1 11 2 17 5 13 3
-3 4 -12 1 -19z m567 -19 c-3 -5 -13 -5 -23 1 -10 5 -21 6 -25 3 -3 -3 -6 -2
-6 3 0 6 5 15 12 22 9 9 16 8 30 -4 9 -9 15 -21 12 -25z m257 18 c-7 -7 -14
-8 -21 -1 -6 6 -2 10 12 11 16 2 18 -1 9 -10z m608 -40 c-14 -49 -31 -87 -39
-87 -4 0 -13 -18 -20 -40 -7 -22 -15 -38 -18 -35 -3 2 -13 0 -23 -5 -21 -12
-29 6 -26 57 3 38 15 53 27 33 7 -12 12 -8 21 18 6 17 15 32 21 32 5 0 6 10 3
21 -5 15 -4 19 4 15 13 -8 43 18 33 28 -3 4 1 4 10 1 13 -5 14 -13 7 -38z
m152 6 c13 -16 12 -17 -3 -4 -10 7 -18 15 -18 17 0 8 8 3 21 -13z m127 -13
c20 0 23 -3 14 -12 -18 -18 -64 6 -55 29 7 17 8 17 11 1 2 -12 13 -18 30 -18z
m-1171 -2 c-3 -8 -6 -5 -6 6 -1 11 2 17 5 13 3 -3 4 -12 1 -19z m353 -53 c0
-5 -5 -3 -10 5 -6 10 -10 11 -10 3 0 -7 -4 -13 -10 -13 -5 0 -7 6 -4 14 3 7
-2 16 -11 20 -9 3 -13 11 -10 16 7 12 55 -28 55 -45z m570 36 c0 -10 -6 -24
-13 -30 -11 -8 -13 -6 -11 12 1 12 3 25 3 30 2 16 21 6 21 -12z m-1076 -9 c2
-4 -4 -9 -15 -9 -11 -1 -17 2 -14 8 7 11 22 12 29 1z m222 -37 c1 -8 -2 -17
-7 -21 -5 -3 -9 7 -9 22 0 27 12 26 16 -1z m89 -4 c-7 -25 -25 -28 -25 -5 0 8
5 12 10 9 6 -3 10 2 10 11 0 10 3 15 6 11 3 -3 3 -15 -1 -26z m-135 -11 c0 -5
-4 -10 -10 -10 -5 0 -10 5 -10 10 0 6 5 10 10 10 6 0 10 -4 10 -10z m1088 -28
c13 2 18 -6 20 -32 l2 -35 -25 28 c-14 15 -24 38 -24 50 1 17 2 18 6 4 2 -10
12 -16 21 -15z m-1584 -37 c-4 -8 -8 -15 -10 -15 -2 0 -4 7 -4 15 0 8 4 15 10
15 5 0 7 -7 4 -15z m1712 5 c24 0 33 -41 17 -73 -8 -16 -12 -35 -9 -43 8 -22
-4 -44 -25 -44 -12 0 -16 5 -13 14 3 8 -4 28 -16 44 -13 17 -22 42 -22 56 0
32 20 59 39 51 8 -3 21 -5 29 -5z m-546 -35 c0 -26 -14 -31 -39 -16 -12 8 -12
12 -2 25 20 24 41 19 41 -9z m132 -17 c-7 -7 -12 -8 -12 -2 0 14 12 26 19 19
2 -3 -1 -11 -7 -17z m-103 -32 c-14 -15 -22 0 -13 26 7 22 7 22 14 3 4 -11 4
-24 -1 -29z m-70 13 c33 -12 40 -26 17 -35 -17 -6 -76 22 -76 36 0 13 20 13
59 -1z m-586 -108 c11 -1 9 -31 -2 -31 -6 0 -13 5 -16 10 -3 6 -12 10 -18 10
-7 0 -6 -4 3 -11 12 -8 12 -10 1 -7 -8 2 -15 12 -17 21 -2 12 4 16 19 13 12
-3 25 -5 30 -5z m1191 0 c4 -5 -3 -7 -14 -4 -23 6 -26 13 -6 13 8 0 17 -4 20
-9z m-1264 -23 c0 -5 -9 -4 -20 2 -11 6 -20 12 -20 14 0 2 9 2 20 -1 11 -3 20
-9 20 -15z m437 -30 c-3 -7 -5 -2 -5 12 0 14 2 19 5 13 2 -7 2 -19 0 -25z
m885 20 c-7 -7 -12 -21 -12 -32 0 -19 -1 -20 -17 -3 -17 17 -17 19 1 33 24 17
45 19 28 2z m-574 -40 c16 -16 15 -31 0 -22 -10 6 -10 4 0 -7 19 -20 14 -31
-8 -19 -12 6 -20 21 -20 35 0 27 9 32 28 13z m486 -4 c3 -8 2 -12 -4 -9 -6 3
-10 10 -10 16 0 14 7 11 14 -7z m-14 -92 c0 -19 -21 -10 -34 14 -18 32 -26 32
-59 3 -41 -38 -48 -36 -29 6 20 44 56 50 94 15 15 -14 28 -31 28 -38z m-159
-35 c-10 -9 -11 -8 -5 6 3 10 9 15 12 12 3 -3 0 -11 -7 -18z m-357 -23 c17 -7
22 -34 6 -34 -5 0 -14 9 -20 20 -12 22 -10 23 14 14z m326 -26 c-1 -25 -26
-59 -54 -73 -36 -19 -37 -19 -28 3 19 50 83 104 82 70z m-120 -47 c0 -45 -39
-101 -71 -101 -22 0 -26 18 -5 26 17 6 56 77 56 99 0 8 5 15 10 15 6 0 10 -18
10 -39z m-1190 -137 c0 -2 -9 0 -20 6 -11 6 -20 13 -20 16 0 2 9 0 20 -6 11
-6 20 -13 20 -16z m837 0 c-3 -3 -12 -4 -19 -1 -8 3 -5 6 6 6 11 1 17 -2 13
-5z m-232 -62 c-7 -8 -35 7 -35 18 0 6 7 6 20 -2 10 -7 17 -14 15 -16z m55 4
c0 -9 -7 -12 -21 -9 -16 4 -17 8 -7 14 19 13 28 11 28 -5z m-13 -32 c-3 -3
-12 -4 -19 -1 -8 3 -5 6 6 6 11 1 17 -2 13 -5z"/>
<path d="M3016 764 c-9 -35 6 -50 28 -29 22 23 21 55 -3 55 -12 0 -21 -10 -25
-26z"/>
<path d="M1193 1919 c-6 -6 -19 -12 -29 -13 -12 -2 -18 -10 -16 -21 2 -10 -1
-14 -7 -10 -7 4 -8 0 -5 -10 7 -19 23 -8 55 37 21 28 22 37 2 17z"/>
<path d="M2360 1900 c0 -5 5 -10 11 -10 5 0 7 5 4 10 -3 6 -8 10 -11 10 -2 0
-4 -4 -4 -10z"/>
<path d="M1293 1889 c-5 -5 -22 -11 -36 -13 -34 -3 -77 -33 -77 -52 0 -8 -4
-13 -8 -10 -4 3 -13 -10 -20 -27 l-12 -32 25 30 c13 17 24 35 25 41 0 13 24
25 56 30 12 1 39 12 60 23 29 15 34 20 19 21 -12 0 -26 -5 -32 -11z"/>
<path d="M896 1865 c-11 -8 -28 -15 -38 -15 -10 0 -18 -4 -18 -10 0 -11 47
-25 73 -21 9 1 17 -1 17 -5 0 -4 -8 -13 -17 -21 -16 -13 -16 -14 10 -10 65 10
0 -53 -70 -68 -42 -9 -51 -23 -19 -31 24 -6 25 -7 11 -34 -18 -34 -3 -50 18
-20 14 20 14 20 25 -6 7 -13 12 -34 12 -44 0 -11 4 -20 9 -20 5 0 7 -9 4 -20
-4 -15 0 -20 13 -20 18 -1 18 -1 1 -14 -15 -12 -16 -18 -7 -35 6 -12 15 -21
21 -21 6 0 8 4 4 9 -3 5 4 13 16 16 16 5 20 13 16 31 -2 13 -1 24 3 24 6 0 6
35 0 50 -1 3 -1 15 0 27 1 13 -6 33 -14 45 -15 20 -14 24 6 45 19 20 20 30 15
93 -3 38 -9 75 -12 80 -9 15 -57 12 -79 -5z"/>
<path d="M3160 1847 c0 -30 9 -39 25 -24 9 9 9 16 1 29 -15 25 -26 22 -26 -5z"/>
<path d="M1267 1839 c-17 -10 -37 -16 -59 -18 -5 -1 -8 -6 -8 -12 0 -8 4 -8
13 0 11 8 13 7 12 -7 0 -9 -4 -23 -9 -30 -4 -7 -2 -12 4 -12 6 0 16 12 23 28
6 15 21 35 32 44 23 20 19 23 -8 7z"/>
<path d="M1267 1791 c-41 -40 -45 -48 -20 -53 15 -3 15 -4 -1 -20 -23 -24 -9
-23 32 2 18 11 39 20 47 20 7 0 17 5 21 12 5 8 0 9 -17 5 l-24 -6 25 21 c16
13 19 19 8 15 -10 -4 -18 -3 -18 0 0 4 8 15 18 26 16 19 16 20 -5 9 -12 -7
-23 -8 -25 -3 -2 5 -20 -8 -41 -28z"/>
<path d="M2260 1810 c0 -5 7 -7 15 -4 8 4 15 8 15 10 0 2 -7 4 -15 4 -8 0 -15
-4 -15 -10z"/>
<path d="M2325 1809 c-19 -9 -19 -9 1 -6 12 3 30 0 40 -6 27 -15 62 -18 70 -5
4 7 2 8 -4 4 -7 -4 -12 -3 -12 2 0 5 -9 12 -20 15 -11 3 -18 1 -14 -4 3 -5 1
-9 -5 -9 -5 0 -13 5 -16 10 -7 12 -13 12 -40 -1z"/>
<path d="M2496 1811 c-8 -12 28 -55 42 -50 6 2 1 15 -13 31 -13 16 -26 24 -29
19z"/>
<path d="M1175 1780 c-3 -5 -1 -10 4 -10 6 0 11 5 11 10 0 6 -2 10 -4 10 -3 0
-8 -4 -11 -10z"/>
<path d="M2278 1783 c7 -3 16 -2 19 1 4 3 -2 6 -13 5 -11 0 -14 -3 -6 -6z"/>
<path d="M2312 1773 c-16 -6 -6 -23 14 -23 8 0 12 5 9 10 -3 6 -2 10 4 10 5 0
11 -6 14 -12 2 -7 8 -9 13 -5 17 16 -26 32 -54 20z"/>
<path d="M3140 1766 c0 -9 7 -16 16 -16 17 0 14 22 -4 28 -7 2 -12 -3 -12 -12z"/>
<path d="M1205 1740 c-3 -5 -1 -10 4 -10 6 0 11 5 11 10 0 6 -2 10 -4 10 -3 0
-8 -4 -11 -10z"/>
<path d="M2290 1727 c-22 -17 -22 -33 0 -33 14 0 16 4 9 12 -7 9 -5 16 8 23
10 6 14 10 8 10 -5 0 -17 -5 -25 -12z"/>
<path d="M2376 1731 c-12 -5 -15 -10 -9 -14 6 -4 16 0 23 8 14 17 13 17 -14 6z"/>
<path d="M3140 1733 c0 -5 5 -15 10 -23 8 -12 10 -11 10 8 0 12 -4 22 -10 22
-5 0 -10 -3 -10 -7z"/>
<path d="M1306 1715 c-8 -8 -26 -19 -40 -25 -17 -6 -24 -15 -20 -24 6 -16 -62
-113 -77 -109 -4 2 -5 -5 -2 -14 5 -12 3 -14 -7 -8 -9 6 -11 4 -5 -5 5 -8 2
-17 -6 -24 -19 -14 -49 -79 -48 -103 0 -15 2 -15 9 4 8 19 56 52 77 54 5 0 16
8 26 16 16 15 17 15 18 -3 0 -11 3 -13 6 -6 2 6 9 9 14 6 6 -3 16 0 24 6 17
14 21 35 5 25 -15 -9 -12 8 6 33 8 12 13 26 10 31 -4 5 0 12 6 14 7 3 2 6 -12
6 -23 1 -67 -18 -45 -19 6 -1 -2 -8 -17 -16 -16 -8 -28 -20 -28 -27 0 -7 3 -8
8 -2 4 6 16 11 27 13 l20 2 -20 -11 c-11 -7 -31 -21 -45 -33 l-25 -21 20 24
c18 21 18 24 3 18 -10 -4 -18 -3 -18 1 0 12 79 92 91 92 6 0 8 4 4 9 -3 5 11
5 32 -1 34 -9 39 -8 59 17 22 28 22 64 0 46 -6 -5 -26 -11 -44 -14 -35 -6 -35
1 1 41 23 24 17 31 -7 7z m-36 -225 c0 -5 -4 -10 -9 -10 -6 0 -13 5 -16 10 -3
6 1 10 9 10 9 0 16 -4 16 -10z"/>
<path d="M2440 1724 c0 -7 12 -19 26 -29 14 -9 23 -19 21 -22 -3 -2 9 -18 26
-35 24 -22 27 -28 12 -24 -17 5 -16 3 5 -14 14 -11 36 -31 49 -43 l25 -22 -19
31 c-24 42 -144 172 -145 158z"/>
<path d="M2325 1710 c4 -6 11 -8 16 -5 14 9 11 15 -7 15 -8 0 -12 -5 -9 -10z"/>
<path d="M1382 1641 c-17 -32 -28 -62 -24 -67 4 -4 -2 -2 -12 6 -11 8 -17 10
-13 4 4 -7 0 -17 -8 -24 -8 -7 -15 -17 -15 -23 0 -7 4 -7 12 1 15 15 32 16 23
2 -10 -16 8 -11 33 9 12 11 22 26 22 34 0 9 6 18 13 21 9 3 8 8 -4 18 -15 12
-15 17 -2 42 28 54 7 34 -25 -23z m18 -25 c0 -3 -4 -8 -10 -11 -5 -3 -10 -1
-10 4 0 6 5 11 10 11 6 0 10 -2 10 -4z"/>
<path d="M2352 1674 c9 -9 21 -13 27 -9 16 10 3 25 -22 25 -20 0 -20 -1 -5
-16z"/>
<path d="M2274 1651 c10 -11 23 -18 27 -15 5 3 9 0 9 -6 0 -6 5 -8 11 -5 11 8
-11 26 -45 39 -19 7 -19 6 -2 -13z"/>
<path d="M2382 1630 c16 -25 43 -37 34 -14 -3 8 -6 20 -6 25 0 5 -9 9 -20 9
-18 0 -19 -3 -8 -20z"/>
<path d="M2435 1640 c3 -5 8 -10 11 -10 2 0 4 5 4 10 0 6 -5 10 -11 10 -5 0
-7 -4 -4 -10z"/>
<path d="M2351 1624 c0 -11 3 -14 6 -6 3 7 2 16 -1 19 -3 4 -6 -2 -5 -13z"/>
<path d="M2460 1636 c0 -2 9 -6 20 -9 11 -3 18 -1 14 4 -5 9 -34 13 -34 5z"/>
<path d="M2192 1611 c7 -12 14 -17 16 -11 2 6 9 7 15 3 7 -3 8 -2 4 3 -5 5
-12 9 -15 9 -4 0 -13 4 -20 9 -11 7 -11 4 0 -13z"/>
<path d="M1180 1600 c-6 -11 -8 -20 -6 -20 3 0 10 9 16 20 6 11 8 20 6 20 -3
0 -10 -9 -16 -20z"/>
<path d="M2129 1604 c5 -11 7 -31 4 -44 -4 -15 -2 -21 5 -16 6 3 14 2 17 -4 5
-8 11 -8 19 -1 9 8 19 4 36 -14 26 -28 62 -37 40 -10 -7 8 -16 13 -20 10 -8
-5 -38 27 -68 71 -7 11 -10 13 -7 6 13 -26 16 -64 5 -57 -6 4 -9 12 -7 19 3 7
-4 23 -15 37 -15 19 -17 20 -9 3z"/>
<path d="M830 1590 c0 -5 5 -10 11 -10 5 0 7 5 4 10 -3 6 -8 10 -11 10 -2 0
-4 -4 -4 -10z"/>
<path d="M2260 1580 c7 -14 16 -31 20 -39 8 -18 37 -37 44 -30 3 3 -1 21 -7
41 -11 32 -14 35 -25 20 -10 -15 -11 -15 -5 3 3 11 3 17 -2 13 -4 -4 -15 -2
-23 5 -13 11 -14 9 -2 -13z"/>
<path d="M2606 1581 c-3 -4 4 -17 17 -27 22 -19 22 -19 4 2 -9 11 -14 24 -10
27 3 4 4 7 0 7 -3 0 -8 -4 -11 -9z"/>
<path d="M2223 1563 c0 -12 3 -20 6 -18 2 3 10 0 18 -6 10 -9 13 -8 13 5 0 10
-4 15 -9 11 -6 -3 -14 3 -20 12 -9 16 -10 16 -8 -4z"/>
<path d="M2436 1565 c6 -14 17 -19 36 -16 4 0 30 -11 58 -25 28 -14 54 -24 56
-21 10 9 -70 51 -100 52 -16 1 -32 7 -34 13 -2 7 -8 12 -13 12 -4 0 -6 -7 -3
-15z"/>
<path d="M1455 1518 c-5 -23 -9 -27 -12 -15 -5 18 -23 24 -23 7 0 -5 0 -11 1
-12 0 -2 -4 -16 -10 -31 -14 -37 -4 -32 42 19 30 34 35 44 23 53 -11 9 -15 5
-21 -21z"/>
<path d="M2599 1518 c7 -10 11 -18 7 -18 -3 0 2 -8 12 -18 9 -10 23 -27 30
-38 7 -10 3 0 -10 24 -12 24 -29 49 -38 55 -13 11 -13 10 -1 -5z"/>
<path d="M3046 1515 c-3 -8 -1 -15 4 -15 6 0 10 7 10 15 0 8 -2 15 -4 15 -2 0
-6 -7 -10 -15z"/>
<path d="M1520 1501 c0 -5 5 -13 10 -16 6 -3 10 -2 10 4 0 5 -4 13 -10 16 -5
3 -10 2 -10 -4z"/>
<path d="M3160 1484 c0 -8 5 -12 10 -9 6 4 8 11 5 16 -9 14 -15 11 -15 -7z"/>
<path d="M2175 1461 c-3 -5 0 -13 6 -17 7 -4 9 -3 5 4 -3 5 0 13 6 15 9 4 10
6 1 6 -6 1 -14 -3 -18 -8z"/>
<path d="M2275 1450 c6 -29 11 -34 18 -16 3 8 0 20 -8 26 -12 10 -13 8 -10
-10z"/>
<path d="M2306 1444 c-4 -9 -4 -19 -1 -22 2 -3 7 3 11 12 4 9 4 19 1 22 -2 3
-7 -3 -11 -12z"/>
<path d="M849 1393 c-6 -16 -13 -41 -16 -57 -6 -26 -4 -28 18 -21 35 11 42 20
30 42 -5 11 -7 29 -4 41 8 32 -16 27 -28 -5z"/>
<path d="M2983 1401 c-45 -49 -47 -53 -32 -62 8 -5 16 -9 19 -9 5 0 50 75 50
84 0 13 -21 5 -37 -13z"/>
<path d="M1169 1393 c-13 -15 -12 -15 9 -4 23 12 28 21 13 21 -5 0 -15 -7 -22
-17z"/>
<path d="M2890 1373 c-13 -15 -12 -16 4 -10 10 4 20 7 22 7 2 0 4 5 4 10 0 15
-13 12 -30 -7z"/>
<path d="M2878 1344 c-5 -4 -8 -21 -8 -38 0 -21 3 -27 11 -19 6 6 9 23 7 38
-2 15 -6 23 -10 19z"/>
<path d="M2913 1292 c-21 -37 -21 -40 -5 -57 16 -18 16 -18 -1 -6 -37 28 -26
2 15 -35 l43 -39 3 32 c2 17 9 36 16 42 17 14 9 71 -9 65 -8 -3 -12 2 -12 12
3 34 -28 25 -50 -14z m28 -99 c13 -16 12 -17 -3 -4 -17 13 -22 21 -14 21 2 0
10 -8 17 -17z"/>
<path d="M891 1273 c0 -25 1 -26 9 -8 12 27 12 35 0 35 -5 0 -10 -12 -9 -27z"/>
<path d="M3016 1288 c4 -7 14 -22 23 -32 12 -14 13 -20 4 -23 -7 -3 -13 -11
-13 -20 0 -12 -2 -12 -16 1 -22 22 -24 20 -18 -16 10 -59 11 -60 38 -42 14 8
28 24 31 35 4 10 14 19 23 19 13 0 10 6 -11 25 -15 14 -27 35 -27 45 0 14 -7
20 -21 20 -13 0 -18 -4 -13 -12z"/>
<path d="M916 1250 c-29 -32 -57 -79 -56 -98 0 -4 7 -16 15 -26 14 -19 15 -19
37 0 13 10 17 12 11 4 -15 -16 -18 -54 -4 -45 5 3 1 -19 -10 -50 -10 -30 -19
-61 -19 -70 0 -30 31 -11 36 22 2 13 73 103 81 103 6 0 -12 -25 -45 -62 -23
-25 -24 -30 -12 -58 9 -22 16 -28 25 -20 6 5 15 7 18 4 20 -20 71 107 62 155
-2 9 -4 18 -4 20 -1 3 -8 -4 -16 -15 -18 -23 -19 -11 -3 32 9 26 9 36 -1 48
-7 9 -17 14 -21 11 -5 -3 -6 4 -3 15 3 11 2 28 -2 37 -5 10 -8 20 -7 23 0 3
-11 5 -24 5 -15 0 -37 -13 -58 -35z"/>
<path d="M2760 1096 c0 -2 8 -10 18 -17 15 -13 16 -12 3 4 -13 16 -21 21 -21
13z"/>
<path d="M838 1081 c-14 -5 -15 -9 -3 -24 13 -18 14 -17 20 3 8 26 5 29 -17
21z"/>
<path d="M830 890 c0 -11 -11 -27 -25 -36 -14 -9 -28 -28 -31 -43 -4 -14 -11
-32 -17 -39 -8 -10 -7 -16 4 -23 21 -13 39 -11 39 6 0 8 5 15 11 15 6 0 8 9 4
20 -11 36 23 36 59 1 29 -28 34 -30 46 -16 9 11 16 12 26 4 17 -14 38 24 28
53 -5 15 -3 19 7 13 12 -7 12 -5 1 6 -11 12 -18 8 -47 -26 -18 -22 -36 -37
-40 -33 -4 4 0 14 9 23 19 19 13 32 -30 69 -38 31 -44 32 -44 6z"/>
<path d="M855 669 c-22 -23 -57 -52 -77 -65 -39 -25 -52 -64 -23 -64 13 0 14
4 5 20 -10 18 -7 20 22 22 45 2 51 1 70 -7 12 -5 17 -1 20 17 2 18 9 22 27 20
22 -2 23 0 18 39 -8 61 -18 64 -62 18z"/>
<path d="M690 590 c0 -5 7 -10 16 -10 8 0 12 5 9 10 -3 6 -10 10 -16 10 -5 0
-9 -4 -9 -10z"/>
<path d="M2170 491 c0 -5 5 -13 10 -16 6 -3 10 -2 10 4 0 5 -4 13 -10 16 -5 3
-10 2 -10 -4z"/>
<path d="M1526 469 c-26 -20 -35 -49 -16 -49 5 0 25 8 45 17 37 18 45 37 19
47 -21 8 -18 9 -48 -15z"/>
<path d="M1436 454 c-9 -22 -8 -24 9 -24 8 0 15 9 15 20 0 24 -15 27 -24 4z"/>
<path d="M1628 411 c-35 -35 -35 -49 -2 -61 27 -11 74 -13 74 -5 0 4 -8 20
-17 38 -9 18 -16 38 -15 45 4 20 -11 14 -40 -17z"/>
<path d="M756 414 c-4 -9 -4 -19 -1 -22 2 -3 7 3 11 12 4 9 4 19 1 22 -2 3 -7
-3 -11 -12z"/>
<path d="M1109 388 c-9 -30 -6 -36 12 -25 23 14 25 27 4 27 -8 0 -15 -1 -16
-2z"/>
<path d="M3160 386 c0 -2 7 -9 15 -16 13 -11 14 -10 9 4 -5 14 -24 23 -24 12z"/>
<path d="M2350 329 c0 -22 25 -54 33 -42 4 6 -2 22 -13 34 -14 18 -19 20 -20
8z"/>
<path d="M1416 221 c-4 -5 -2 -12 3 -15 5 -4 12 -2 15 3 4 5 2 12 -3 15 -5 4
-12 2 -15 -3z"/>
<path d="M2350 82 c0 -4 5 -13 12 -20 9 -9 6 -17 -12 -37 l-23 -25 64 0 c60 0
65 2 76 27 15 31 15 30 -17 36 -14 3 -38 10 -53 16 -34 13 -47 14 -47 3z"/>
</g>
</svg>
